#!OML:ASF F:\VICON\USERDATA\INSTALL\rory3\rory3.ASF
:FULLY-SPECIFIED
:DEGREES
332
root 0.626909 17.1431 4.65647 -3.67103 3.49796 -0.415181
lowerback 12.1381 0.260737 -1.09586
upperback 0.31511 0.349451 2.29072
thorax -6.5087 0.242545 2.97702
lowerneck -15.4353 -4.85019 -10.612
upperneck 27.7575 -5.68769 5.83697
head 12.2022 -2.93007 3.14856
rclavicle 1.39895e-014 6.36111e-015
rhumerus -43.3354 -8.854 -75.9366
rradius 38.5356
rwrist 2.71833
rhand -19.3654 15.2461
rfingers 7.12502
rthumb 6.9524 -14.6197
lclavicle 1.39895e-014 6.36111e-015
lhumerus -41.4809 8.75891 87.6595
lradius 34.474
lwrist -0.280785
lhand -23.7198 24.6658
lfingers 7.12502
lthumb 2.74793 54.6279
rfemur -16.6902 -0.288617 21.9645
rtibia 41.0827
rfoot -12.2917 -8.38359
rtoes 7.6977
lfemur -20.0378 -1.62175 -21.7057
ltibia 38.9963
lfoot -11.3299 -1.12091
ltoes 3.52573
333
root 0.624703 17.2244 4.7112 -3.31957 3.33356 -0.349675
lowerback 11.5407 0.290861 -1.16416
upperback 0.220255 0.382206 2.30311
thorax -6.27585 0.259087 3.02028
lowerneck -15.4557 -4.89472 -10.6368
upperneck 27.4746 -5.78477 6.00922
head 12.1099 -2.95127 3.19773
rclavicle -9.91439e-015 -3.65764e-014
rhumerus -43.1727 -9.59898 -75.5991
rradius 37.8531
rwrist 2.25791
rhand -19.3648 15.3403
rfingers 7.12502
rthumb 6.953 -14.5255
lclavicle -9.91439e-015 -3.65764e-014
lhumerus -41.8177 8.39357 87.8695
lradius 34.6003
lwrist 0.866664
lhand -23.3272 23.6051
lfingers 7.12502
lthumb 3.12714 53.5619
rfemur -15.8867 0.300579 21.9164
rtibia 39.3012
rfoot -11.7149 -8.52026
rtoes 7.85741
lfemur -19.1684 -2.0606 -21.7109
ltibia 37.2232
lfoot -10.7271 -0.677936
ltoes 2.98871
334
root 0.616374 17.3058 4.77038 -3.06349 3.10492 -0.368482
lowerback 10.9285 0.340356 -1.22648
upperback 0.269521 0.444298 2.37825
thorax -5.88438 0.287419 3.12118
lowerneck -15.9728 -4.92755 -10.7103
upperneck 27.3688 -5.79477 6.16258
head 12.1824 -2.93404 3.2584
rclavicle 8.02593e-015 -2.38542e-015
rhumerus -42.7908 -10.3334 -75.2935
rradius 37.1186
rwrist 1.91054
rhand -19.472 15.9016
rfingers 7.12502
rthumb 6.84952 -13.9676
lclavicle 8.02593e-015 -2.38542e-015
lhumerus -41.8222 8.16213 88.0476
lradius 34.4696
lwrist 1.68435
lhand -23.5721 22.8497
lfingers 7.12502
lthumb 2.89062 52.8099
rfemur -15.0301 0.990723 22.0071
rtibia 37.543
rfoot -11.0598 -8.73346
rtoes 8.12661
lfemur -18.2544 -2.33461 -21.5932
ltibia 35.5499
lfoot -10.3292 -0.250882
ltoes 2.17697
335
root 0.612799 17.3814 4.8317 -2.72932 2.94802 -0.437619
lowerback 10.5166 0.336507 -1.1036
upperback 0.0650393 0.458018 2.39114
thorax -5.86838 0.292727 3.06251
lowerneck -16.5162 -4.90239 -10.7071
upperneck 27.6389 -5.7513 6.29381
head 12.4007 -2.89157 3.3143
rclavicle -9.7653e-015 -1.51076e-014
rhumerus -42.9628 -10.7852 -75.1116
rradius 36.861
rwrist 1.48714
rhand -19.3069 15.7911
rfingers 7.12502
rthumb 7.00892 -14.0728
lclavicle -9.7653e-015 -1.51076e-014
lhumerus -42.1283 7.90277 88.0508
lradius 34.3856
lwrist 2.04807
lhand -23.2973 22.8685
lfingers 7.12502
lthumb 3.15603 52.8249
rfemur -14.2616 1.60256 22.1344
rtibia 35.8383
rfoot -10.3542 -9.10189
rtoes 8.58041
lfemur -17.4397 -2.7854 -21.4426
ltibia 33.9287
lfoot -9.89549 0.229263
ltoes 1.99801
336
root 0.613103 17.4469 4.88321 -2.29903 2.96049 -0.473627
lowerback 10.1682 0.277152 -0.904355
upperback -0.213153 0.404708 2.36013
thorax -5.96026 0.263758 2.92549
lowerneck -16.8623 -4.95309 -10.5585
upperneck 27.7144 -5.81119 6.21174
head 12.5003 -2.90797 3.2444
rclavicle -4.96962e-016 1.03368e-014
rhumerus -43.3215 -10.8987 -75.0875
rradius 36.9551
rwrist 0.749798
rhand -19.0653 14.7402
rfingers 7.12502
rthumb 7.24214 -15.1159
lclavicle -4.96962e-016 1.03368e-014
lhumerus -42.4858 7.40053 88.1531
lradius 34.4858
lwrist 2.47295
lhand -23.2016 22.6297
lfingers 7.12502
lthumb 3.24845 52.5847
rfemur -13.6335 2.04039 22.1949
rtibia 34.1654
rfoot -9.62204 -9.62547
rtoes 8.71176
lfemur -16.788 -3.4051 -21.3526
ltibia 32.3409
lfoot -9.27677 0.622007
ltoes 2.70629
337
root 0.614198 17.5063 4.93194 -1.89956 2.96487 -0.397749
lowerback 9.57595 0.249043 -0.821265
upperback -0.267816 0.37206 2.29803
thorax -5.68028 0.241864 2.81536
lowerneck -16.9614 -4.97858 -10.3303
upperneck 27.2439 -5.85922 6.12378
head 12.325 -2.91003 3.15285
rclavicle -2.26118e-015 2.8625e-014
rhumerus -43.438 -11.0484 -75.1026
rradius 37.0437
rwrist 0.299598
rhand -18.9867 14.6339
rfingers 7.12502
rthumb 7.31797 -15.2196
lclavicle -2.26118e-015 2.8625e-014
lhumerus -42.5424 7.00876 88.2302
lradius 34.6421
lwrist 2.46909
lhand -22.9997 22.1828
lfingers 7.12502
lthumb 3.44338 52.1347
rfemur -13.0092 2.32006 22.0976
rtibia 32.5627
rfoot -9.06495 -9.84042
rtoes 8.81762
lfemur -16.1401 -3.89163 -21.4076
ltibia 30.8163
lfoot -8.71923 0.924585
ltoes 3.86092
338
root 0.612436 17.5616 4.99256 -1.60507 2.82764 -0.313578
lowerback 8.91633 0.256812 -0.882103
upperback -0.294865 0.373014 2.28106
thorax -5.33657 0.240622 2.82914
lowerneck -16.9738 -4.92088 -10.2642
upperneck 26.8487 -5.81963 6.26384
head 12.168 -2.8641 3.19439
rclavicle -2.6339e-015 9.54166e-015
rhumerus -43.5474 -11.1599 -75.0204
rradius 36.914
rwrist 0.276687
rhand -18.9911 15.5462
rfingers 7.12502
rthumb 7.31378 -14.3074
lclavicle -2.6339e-015 9.54166e-015
lhumerus -42.6348 6.7615 88.2267
lradius 34.6476
lwrist 1.93232
lhand -22.5649 22.1914
lfingers 7.12502
lthumb 3.86326 52.1362
rfemur -12.2558 2.70294 22.0045
rtibia 31.0434
rfoot -8.64728 -9.89448
rtoes 9.05884
lfemur -15.3783 -4.08453 -21.4865
ltibia 29.3852
lfoot -8.3311 1.20359
ltoes 4.35031
339
root 0.605149 17.6076 5.05264 -1.38354 2.65235 -0.203281
lowerback 8.48702 0.248702 -1.03947
upperback -0.361977 0.346371 2.28728
thorax -5.16418 0.230646 2.92693
lowerneck -17.3768 -4.94563 -10.2996
upperneck 26.8781 -5.83388 6.36355
head 12.2678 -2.85476 3.23184
rclavicle -9.05713e-015 -2.38542e-014
rhumerus -43.4899 -11.1204 -74.9964
rradius 36.6454
rwrist 0.294858
rhand -18.8319 16.0947
rfingers 7.12502
rthumb 7.4674 -13.7535
lclavicle -9.05713e-015 -2.38542e-014
lhumerus -42.8017 6.39757 88.2767
lradius 34.731
lwrist 1.45265
lhand -22.2954 22.4406
lfingers 7.12502
lthumb 4.12347 52.3804
rfemur -11.4764 3.17891 21.931
rtibia 29.626
rfoot -8.25765 -10.0387
rtoes 9.43643
lfemur -14.5612 -4.1802 -21.5649
ltibia 28.0088
lfoot -8.04415 1.4186
ltoes 5.00886
340
root 0.601238 17.6418 5.10388 -1.17906 2.59211 -0.0660498
lowerback 8.18298 0.181648 -1.11656
upperback -0.449923 0.248673 2.25598
thorax -5.07897 0.183856 2.94933
lowerneck -17.7295 -4.99712 -10.3621
upperneck 26.882 -5.87755 6.44704
head 12.3511 -2.86398 3.26295
rclavicle -6.55989e-015 4.77083e-015
rhumerus -43.281 -10.8512 -75.164
rradius 36.396
rwrist 0.0830245
rhand -18.3355 16.0533
rfingers 7.12502
rthumb 7.94656 -13.7773
lclavicle -6.55989e-015 4.77083e-015
lhumerus -43.0151 5.97036 88.3071
lradius 34.9625
lwrist 1.07691
lhand -22.1712 22.3112
lfingers 7.12502
lthumb 4.24344 52.2486
rfemur -10.703 3.35363 21.8021
rtibia 28.2562
rfoot -7.94596 -10.071
rtoes 9.76726
lfemur -13.8408 -4.25448 -21.7061
ltibia 26.7519
lfoot -7.81739 1.56306
ltoes 5.42102
341
root 0.601967 17.6698 5.15265 -0.914796 2.54904 0.0973702
lowerback 7.78181 0.117994 -1.22366
upperback -0.662233 0.155065 2.22901
thorax -5.06909 0.142028 2.99247
lowerneck -17.4773 -4.92212 -10.3812
upperneck 26.6659 -5.82371 6.58456
head 12.213 -2.82786 3.32683
rclavicle 3.71479e-015 1.35174e-014
rhumerus -43.5399 -10.255 -75.4073
rradius 36.6676
rwrist -0.300389
rhand -17.9273 15.4801
rfingers 7.12502
rthumb 8.34049 -14.3353
lclavicle 3.71479e-015 1.35174e-014
lhumerus -43.4582 5.64078 88.2884
lradius 35.2174
lwrist 0.656742
lhand -22.1136 21.525
lfingers 7.12502
lthumb 4.29906 51.4613
rfemur -10.0784 3.3993 21.5977
rtibia 26.9753
rfoot -7.90474 -9.927
rtoes 9.45327
lfemur -13.2633 -4.32476 -21.8991
ltibia 25.5994
lfoot -7.59632 1.74051
ltoes 5.3768
342
root 0.597741 17.6978 5.18998 -0.570087 2.43715 -0.110161
lowerback 7.39211 0.089323 -1.04333
upperback -0.862672 0.141579 2.33372
thorax -5.05732 0.133688 3.00075
lowerneck -17.2488 -4.84043 -10.3371
upperneck 26.3725 -5.74865 6.64404
head 12.0429 -2.78441 3.3511
rclavicle 2.2239e-015 2.38542e-014
rhumerus -43.8989 -9.65703 -75.6662
rradius 37.3064
rwrist -0.559786
rhand -17.9318 15.0156
rfingers 7.12502
rthumb 8.33613 -14.7999
lclavicle 2.2239e-015 2.38542e-014
lhumerus -43.8123 5.11101 88.3976
lradius 35.6162
lwrist 0.177527
lhand -21.9564 21.0379
lfingers 7.12502
lthumb 4.45088 50.9712
rfemur -9.72048 3.74011 21.8334
rtibia 25.804
rfoot -8.20988 -9.66521
rtoes 8.788
lfemur -12.9386 -4.19916 -21.6257
ltibia 24.5523
lfoot -7.36545 1.75738
ltoes 5.3452
343
root 0.592248 17.7192 5.22358 -0.266709 2.38629 -0.148246
lowerback 7.19069 0.069886 -0.960771
upperback -0.986676 0.125231 2.34727
thorax -5.07175 0.124773 2.96982
lowerneck -17.5271 -4.86104 -10.192
upperneck 26.2643 -5.75963 6.54774
head 12.0495 -2.7807 3.28227
rclavicle 5.06901e-015 -7.95139e-015
rhumerus -43.821 -9.16215 -75.9735
rradius 37.4897
rwrist -0.65505
rhand -18.0051 14.5959
rfingers 7.12502
rthumb 8.26543 -15.2224
lclavicle 5.06901e-015 -7.95139e-015
lhumerus -44.0572 4.50929 88.5162
lradius 36.1895
lwrist -0.0103074
lhand -21.9847 20.0889
lfingers 7.12502
lthumb 4.42355 50.0227
rfemur -9.3637 4.01609 21.8801
rtibia 24.7636
rfoot -8.42886 -9.19541
rtoes 9.12645
lfemur -12.6393 -4.10191 -21.5271
ltibia 23.6046
lfoot -7.23287 1.69849
ltoes 5.40932
